<svg width="20" height="20" viewBox="0 0 20 20" fill="none" xmlns="http://www.w3.org/2000/svg">
<g clip-path="url(#clip0_3200_18334)">
<path d="M10 3.34337C11.3166 3.34337 12.6036 3.73377 13.6983 4.46522C14.793 5.19666 15.6462 6.23629 16.15 7.45264C16.6538 8.66898 16.7856 10.0074 16.5288 11.2987C16.2719 12.5899 15.638 13.7761 14.707 14.707C13.7761 15.638 12.59 16.2719 11.2987 16.5288C10.0074 16.7856 8.66899 16.6538 7.45264 16.15C6.23629 15.6462 5.19666 14.793 4.46522 13.6983C3.73378 12.6036 3.34337 11.3166 3.34337 10C3.34538 8.23519 4.04735 6.54321 5.29528 5.29527C6.54321 4.04734 8.23519 3.34537 10 3.34337V3.34337ZM10 1.6792C8.35433 1.6792 6.74558 2.16721 5.37723 3.08151C4.00887 3.99582 2.94237 5.29535 2.31259 6.81579C1.6828 8.33622 1.51802 10.0093 1.83909 11.6233C2.16015 13.2374 2.95263 14.7201 4.11632 15.8838C5.28001 17.0474 6.76264 17.8399 8.37672 18.161C9.99081 18.482 11.6638 18.3173 13.1843 17.6875C14.7047 17.0577 16.0043 15.9912 16.9186 14.6228C17.8329 13.2545 18.3209 11.6457 18.3209 10C18.3208 7.79322 17.4442 5.67679 15.8837 4.11634C14.3233 2.55588 12.2069 1.67922 10 1.6792V1.6792Z" fill="black"/>
<path d="M10.6359 5.32506C10.3808 5.31207 10.1301 5.39477 9.93283 5.55697L9.93 5.55989L7.35583 7.69172C7.19152 7.82801 7.07313 8.01156 7.01671 8.21745C6.9603 8.42334 6.9686 8.6416 7.04049 8.8426C7.11238 9.04361 7.24438 9.21764 7.41856 9.34105C7.59275 9.46447 7.80069 9.5313 8.01417 9.53247C8.25417 9.53281 8.48665 9.44881 8.671 9.29514L9.55158 8.57931L9.55208 13.6184C9.55213 13.8988 9.66355 14.1677 9.86185 14.366C10.0602 14.5643 10.3291 14.6756 10.6095 14.6756C10.7484 14.6756 10.8859 14.6482 11.0141 14.5951C11.1424 14.5419 11.259 14.464 11.3572 14.3658C11.4553 14.2676 11.5332 14.151 11.5863 14.0227C11.6394 13.8944 11.6668 13.7569 11.6668 13.6181V6.36364C11.6672 6.08938 11.559 5.8261 11.3658 5.63145C11.1726 5.43679 10.9102 5.32662 10.6359 5.32506Z" fill="black"/>
</g>
<defs>
<clipPath id="clip0_3200_18334">
<rect width="20" height="20" fill="white"/>
</clipPath>
</defs>
</svg>
